<svg version="1.1" id="Layer_1" xmlns="http://www.w3.org/2000/svg" xmlns:xlink="http://www.w3.org/1999/xlink" x="0px" y="0px"
	 width="100%" viewBox="0 0 845 675" enable-background="new 0 0 845 675" xml:space="preserve">
<path fill="#000000" opacity="1.000000" stroke="none" 
	d="
M519.000000,676.000000 
	C346.000000,676.000000 173.500000,676.000000 1.000000,676.000000 
	C1.000000,451.000000 1.000000,226.000000 1.000000,1.000000 
	C282.666656,1.000000 564.333313,1.000000 846.000000,1.000000 
	C846.000000,226.000000 846.000000,451.000000 846.000000,676.000000 
	C737.166687,676.000000 628.333313,676.000000 519.000000,676.000000 
M400.645630,303.953491 
	C407.796356,307.540070 415.428436,308.526459 423.296875,307.992859 
	C442.694580,306.677368 457.019287,292.146881 456.889862,273.756042 
	C456.743469,252.955429 456.861664,232.152985 456.844482,211.351349 
	C456.843170,209.768188 456.679962,208.185181 456.575745,206.309372 
	C450.099243,206.309372 444.102844,206.646652 438.164246,206.205643 
	C433.161133,205.834106 432.122894,207.723862 432.172180,212.395752 
	C432.389709,233.027908 432.284576,253.664490 432.160645,274.298645 
	C432.120605,280.964844 429.122345,285.081360 423.546875,285.895416 
	C417.580383,286.766510 412.013336,285.901093 408.147705,280.345490 
	C407.458496,279.354980 405.412201,278.136353 404.751556,278.480377 
	C398.392029,281.792389 392.195221,285.416840 384.492584,289.778076 
	C390.241486,294.938446 395.099487,299.299103 400.645630,303.953491 
M109.924706,524.772949 
	C115.752106,524.773010 121.583549,524.911194 127.405937,524.740356 
	C135.964706,524.489197 140.844025,519.417358 140.883987,510.878632 
	C140.934631,500.056488 140.948883,489.233582 140.877441,478.411682 
	C140.825699,470.571289 135.735870,465.375641 127.833672,465.153046 
	C122.177147,464.993713 116.512161,465.063049 110.851921,465.122986 
	C101.171448,465.225433 96.310417,470.190765 96.269211,480.021606 
	C96.228027,489.844849 96.238632,499.668427 96.265266,509.491730 
	C96.291145,519.038574 99.507439,522.854126 109.924706,524.772949 
M233.730988,502.476349 
	C233.729538,494.657227 233.821152,486.836700 233.701721,479.019379 
	C233.569763,470.383575 228.669418,465.365082 220.142944,465.146271 
	C214.157867,464.992645 208.162399,464.996948 202.177307,465.151825 
	C194.294968,465.355774 189.187958,470.569611 189.139755,478.389496 
	C189.072052,489.369110 189.072006,500.349731 189.139771,511.329346 
	C189.187714,519.099304 193.744431,524.218384 201.543701,524.661011 
	C208.175735,525.037415 214.867203,525.047485 221.495239,524.630005 
	C228.749435,524.173035 233.235718,519.225342 233.680984,511.947083 
	C233.853394,509.129028 233.723282,506.292511 233.730988,502.476349 
M673.712646,498.496399 
	C673.710449,492.009308 673.801392,485.520538 673.683044,479.035583 
	C673.525208,470.379944 668.652649,465.364838 660.134399,465.146149 
	C654.150391,464.992462 648.156067,464.998474 642.171936,465.151428 
	C634.291931,465.352875 629.175354,470.570923 629.130737,478.367523 
	C629.067932,489.345276 629.072632,500.323883 629.128723,511.301727 
	C629.169312,519.251221 633.936584,524.351379 641.985168,524.708984 
	C648.127380,524.981812 654.297180,524.934143 660.444153,524.721863 
	C668.320740,524.449890 673.366333,519.317078 673.672546,511.468750 
	C673.828064,507.482635 673.708069,503.485779 673.712646,498.496399 
M526.180237,492.501221 
	C526.181396,498.657806 526.128052,504.815002 526.197083,510.970825 
	C526.290283,519.285706 531.095215,524.413513 539.364136,524.718872 
	C545.512207,524.945862 551.683960,524.965088 557.829895,524.709473 
	C565.860901,524.375366 570.746094,519.265076 570.817993,511.307465 
	C570.915649,500.492706 570.891907,489.676086 570.826904,478.860840 
	C570.782104,471.416809 567.370728,466.370178 560.140503,465.584808 
	C552.263489,464.729126 544.160767,464.832397 536.265930,465.618134 
	C530.054382,466.236298 526.369202,471.605652 526.208923,478.024872 
	C526.096802,482.514801 526.182739,487.009644 526.180237,492.501221 
M467.092743,508.494446 
	C467.092743,513.437134 467.092743,518.379822 467.092743,523.489258 
	C471.230225,523.489258 474.792542,523.489258 478.924744,523.489258 
	C478.924744,512.853027 478.924744,502.508392 478.924744,490.719818 
	C480.688385,493.004181 481.606598,494.081726 482.402863,495.242889 
	C487.738220,503.023285 493.057190,510.814972 498.362244,518.616089 
	C502.365326,524.502686 504.064850,525.079163 511.374146,523.002197 
	C511.374146,504.090332 511.374146,485.215332 511.374146,466.515198 
	C507.386078,466.515198 503.825958,466.515198 499.643097,466.515198 
	C499.643097,477.072296 499.643097,487.225189 499.643097,497.378052 
	C497.658051,496.375031 496.610382,495.147461 495.709290,493.820343 
	C490.784271,486.567291 485.590118,479.472382 481.094391,471.960480 
	C477.744141,466.362488 473.478760,464.813019 467.092743,466.744476 
	C467.092743,480.266632 467.092743,493.881683 467.092743,508.494446 
M438.103638,509.526031 
	C438.103638,514.134277 438.103638,518.742493 438.103638,523.438354 
	C442.932800,523.438354 447.153137,523.438354 451.404602,523.438354 
	C451.404602,504.191925 451.404602,485.301117 451.404602,466.488770 
	C446.807861,466.488770 442.579224,466.488770 438.103638,466.488770 
	C438.103638,470.187714 438.103668,473.506897 438.103668,476.826080 
	C438.103668,489.375702 438.104370,489.242584 425.396332,489.173340 
	C421.800385,489.153717 420.788208,487.940277 420.914093,484.520264 
	C421.137604,478.445953 420.976837,472.357452 420.976837,466.359558 
	C416.078003,466.359558 411.967651,466.359558 407.300781,466.359558 
	C407.300781,484.719971 407.260529,502.830719 407.413910,520.939819 
	C407.421967,521.892944 409.005280,523.559509 409.969391,523.647949 
	C413.534058,523.974548 417.146729,523.777893 420.977875,523.777893 
	C420.977875,516.915039 420.855835,510.757446 421.077515,504.612274 
	C421.123657,503.333405 422.370605,501.071747 423.186035,501.015045 
	C428.077545,500.674805 433.004669,500.846313 438.103638,500.846313 
	C438.103638,503.902527 438.103638,506.221893 438.103638,509.526031 
M728.400452,470.563904 
	C728.276123,468.820496 728.151855,467.077087 728.013977,465.142853 
	C718.466980,465.142853 709.475037,464.948090 700.495972,465.203918 
	C693.193359,465.412018 688.195557,470.787750 688.138489,478.111237 
	C688.050171,489.442261 688.041992,500.775208 688.145630,512.106018 
	C688.201782,518.243713 691.015015,522.801270 697.010071,523.630249 
	C704.290527,524.636963 711.901489,524.820618 719.174194,523.868591 
	C726.244019,522.943054 729.222168,518.523865 729.542297,511.379822 
	C729.788208,505.891449 729.715515,500.379303 729.509583,494.888062 
	C729.467346,493.761505 728.248413,491.761688 727.496643,491.725464 
	C721.897339,491.455505 716.279114,491.578888 710.555054,491.578888 
	C710.555054,495.697906 710.555054,499.086121 710.555054,502.476898 
	C712.645203,502.766937 714.378296,503.007446 716.072327,503.242523 
	C716.072327,506.356079 716.072327,509.116150 716.072327,512.065735 
	C711.235107,512.065735 706.704163,512.065735 701.771423,512.065735 
	C701.771423,501.210022 701.809814,490.743103 701.747925,480.276764 
	C701.729492,477.150574 703.592896,476.878754 706.017944,476.898804 
	C713.292603,476.958923 720.567993,476.920410 728.160217,476.920410 
	C728.257019,474.709808 728.328674,473.074036 728.400452,470.563904 
M327.550507,483.489502 
	C327.628754,481.724548 327.707001,479.959595 327.807312,477.697021 
	C334.997589,477.697021 341.740814,477.697021 348.627563,477.697021 
	C348.627563,473.559113 348.627563,469.949646 348.627563,465.737610 
	C337.804565,465.737610 327.190460,465.635406 316.585266,465.896545 
	C315.529419,465.922546 313.648254,468.151978 313.634125,469.375946 
	C313.438141,486.368683 313.453064,503.364868 313.607422,520.358459 
	C313.618073,521.529724 315.121765,523.682800 315.966034,523.700439 
	C326.912598,523.927979 337.865479,523.851135 348.978455,523.851135 
	C348.978455,519.669739 348.978455,516.008972 348.978455,511.976593 
	C341.682800,511.976593 334.904755,511.976593 327.958252,511.976593 
	C327.958252,508.071289 327.958252,504.552155 327.958252,500.528839 
	C334.441650,500.528839 340.527588,500.528839 346.536438,500.528839 
	C346.536438,496.445099 346.536438,492.885406 346.536438,488.874817 
	C340.070282,488.874817 333.979370,488.874817 327.758423,488.874817 
	C327.674896,487.104645 327.612762,485.788208 327.550507,483.489502 
M769.356567,479.752502 
	C768.294678,482.884918 767.374023,486.076447 766.099731,489.119934 
	C765.607300,490.296021 764.312805,491.136322 763.383789,492.129639 
	C762.463379,491.145172 761.123596,490.315979 760.692017,489.150482 
	C758.282471,482.643188 756.177734,476.022827 753.756165,469.520325 
	C753.268188,468.209869 751.947815,466.372559 750.867798,466.268646 
	C746.840759,465.881073 742.754089,466.113861 738.029907,466.113861 
	C741.891785,476.758301 745.304871,486.585876 749.081726,496.271576 
	C749.993225,498.609131 752.205078,500.413544 753.636475,502.583435 
	C754.619751,504.074005 755.891724,505.738068 755.985474,507.384277 
	C756.285522,512.655457 756.096924,517.954529 756.096924,523.507629 
	C760.815369,523.507629 765.039856,523.507629 769.533569,523.507629 
	C769.632507,522.285583 769.719849,521.326172 769.786377,520.365295 
	C770.296631,513.000488 769.530273,506.360840 774.913147,498.981567 
	C781.541077,489.895386 783.747620,477.583984 787.930603,466.492767 
	C774.413086,465.177368 774.410461,465.176453 770.440857,476.685333 
	C770.171387,477.466644 769.984924,478.276550 769.356567,479.752502 
M364.777435,519.672607 
	C374.436615,527.264221 385.473114,522.298645 395.960297,523.917175 
	C395.960297,519.343323 395.960297,515.610291 395.960297,511.467499 
	C390.413666,511.467499 385.270752,511.227570 380.161865,511.541595 
	C375.883179,511.804657 374.716095,510.124329 374.873657,506.055878 
	C375.156616,498.748535 375.231232,491.407990 374.854492,484.109131 
	C374.608887,479.351074 376.035950,477.476929 380.935791,477.835663 
	C385.848145,478.195282 390.807343,477.914642 395.889832,477.914642 
	C395.889832,473.705322 395.889832,470.023010 395.889832,466.113739 
	C388.918488,466.113739 382.441437,466.065063 375.965393,466.125122 
	C366.264740,466.215118 361.314758,471.186737 361.262085,480.910095 
	C361.211639,490.224030 360.981079,499.550507 361.393890,508.846405 
	C361.546967,512.293884 363.303833,515.670166 364.777435,519.672607 
M277.576965,465.618774 
	C273.865051,465.618774 270.153137,465.618774 266.618225,465.618774 
	C266.618225,470.422394 266.618225,473.980988 266.618225,477.951263 
	C270.952545,477.951263 274.885315,477.951263 279.284149,477.951263 
	C279.284149,489.647003 279.286011,500.925110 279.283600,512.203247 
	C279.281006,524.528870 279.279510,524.531860 291.690430,523.633728 
	C291.973358,523.613220 292.235779,523.310120 292.891113,522.897339 
	C292.891113,521.497986 292.891113,519.863342 292.891113,518.228699 
	C292.891113,506.408081 293.063538,494.583618 292.797089,482.769012 
	C292.704590,478.667480 294.099701,477.398346 297.970337,477.792999 
	C300.531067,478.054108 303.139984,477.842468 305.673859,477.842468 
	C305.673859,473.456512 305.673859,469.843506 305.673859,465.618927 
	C296.467987,465.618927 287.512238,465.618927 277.576965,465.618774 
M586.085632,483.501831 
	C586.085632,496.886353 586.085632,510.270905 586.085632,523.642822 
	C597.496216,523.642822 608.097168,523.642822 618.970459,523.642822 
	C618.970459,519.738953 618.970459,516.070129 618.970459,512.089111 
	C615.179504,512.089111 611.867676,512.117432 608.556519,512.083801 
	C598.492981,511.981598 599.775635,513.352966 599.732178,503.439880 
	C599.678406,491.177368 599.719299,478.914429 599.719299,466.383850 
	C594.971436,466.383850 590.757019,466.383850 586.085632,466.383850 
	C586.085632,471.937012 586.085632,477.219940 586.085632,483.501831 
M150.720367,523.710388 
	C166.171890,527.639526 174.852264,521.473328 174.574539,508.721619 
	C174.302719,496.240906 174.531265,483.749512 174.504547,471.262909 
	C174.501129,469.661377 174.283325,468.060303 174.159546,466.387390 
	C169.394318,466.387390 165.143890,466.387390 160.338654,466.387390 
	C160.338654,481.732727 160.338654,496.800140 160.338654,511.755524 
	C156.778275,512.388062 152.527679,511.930756 151.108841,513.719543 
	C149.535339,515.703308 150.548141,519.738403 150.720367,523.710388 
M81.778214,511.988617 
	C81.778214,496.780457 81.778214,481.572296 81.778214,466.477081 
	C76.787178,466.477081 72.561081,466.477081 68.080803,466.477081 
	C68.080803,478.796600 68.080803,490.743042 68.080788,502.689514 
	C68.080780,511.414459 68.079720,511.407379 59.792038,512.638000 
	C59.326946,512.707092 58.902031,513.046753 58.084270,513.440674 
	C58.084270,515.107056 58.084270,516.913818 58.084270,518.720642 
	C58.084270,520.634277 58.084270,522.547913 58.084270,524.373108 
	C74.007195,526.029724 78.910484,523.552185 81.778214,511.988617 
M266.568451,546.923462 
	C265.976532,546.408386 265.389587,545.451660 264.791931,545.444885 
	C256.965271,545.356628 249.107315,544.989502 241.319153,545.551208 
	C235.528275,545.968872 232.049225,551.056458 232.111710,557.259888 
	C232.174530,563.498352 235.197998,567.263245 241.523361,567.971008 
	C246.458511,568.523071 251.477722,568.426575 256.459412,568.421753 
	C259.553986,568.418823 262.732086,568.880981 262.787598,572.422302 
	C262.846191,576.159607 259.554779,576.284790 256.531219,576.250366 
	C248.583954,576.159790 240.634979,576.219788 232.454437,576.219788 
	C232.454437,578.741028 232.454437,580.643616 232.454437,583.037903 
	C241.296249,583.037903 249.920029,583.064392 258.543579,583.029785 
	C265.838593,583.000488 269.797485,579.402527 269.906097,572.801636 
	C270.017548,566.027100 265.478424,561.434448 258.376984,561.281433 
	C253.881073,561.184509 249.380310,561.197815 244.883865,561.279846 
	C241.902817,561.334167 239.537460,560.878052 239.482758,557.131836 
	C239.425323,553.197571 241.838242,552.490967 245.057571,552.522888 
	C250.721100,552.578918 256.398285,552.303345 262.045349,552.612427 
	C265.909637,552.823975 267.262909,551.414795 266.568451,546.923462 
M614.564575,581.377930 
	C615.315796,577.076660 613.312744,575.986450 609.267944,576.139832 
	C601.840454,576.421570 594.394653,576.220154 587.032715,576.220154 
	C586.317566,568.485046 586.318115,568.528137 593.085205,568.442505 
	C597.565247,568.385803 602.106201,568.602600 606.507019,567.943420 
	C612.361084,567.066467 615.066223,562.703674 614.584412,556.189819 
	C614.090027,549.505920 610.489563,545.484497 604.613525,545.346130 
	C599.120972,545.216736 593.622986,545.306274 588.127380,545.314209 
	C581.880066,545.323303 581.735657,545.509644 582.985596,552.540100 
	C589.452148,552.540100 596.063843,552.592041 602.674072,552.517151 
	C605.759460,552.482178 607.187988,553.604187 607.200195,556.915405 
	C607.212280,560.191406 605.953918,561.389282 602.764099,561.292969 
	C598.105652,561.152222 593.435303,561.145020 588.777588,561.303040 
	C583.760803,561.473145 579.790894,564.914551 579.368225,569.815430 
	C579.002197,574.060547 579.292175,578.362244 579.292175,583.038330 
	C587.593689,583.038330 595.390442,583.122070 603.184082,583.001892 
	C606.932800,582.944153 610.675598,582.501709 614.564575,581.377930 
M494.288635,545.452026 
	C487.726135,546.919189 483.143738,550.833984 481.463654,557.281311 
	C480.606445,560.570862 481.132843,564.226318 481.072968,567.717041 
	C480.957275,574.457031 484.060181,580.486755 490.238861,581.526611 
	C498.669983,582.945618 507.843567,583.191711 516.122498,581.349854 
	C524.129211,579.568481 526.898071,570.077148 524.933167,559.027893 
	C523.466553,550.780396 517.419983,545.503601 509.129883,545.361755 
	C504.471191,545.282043 499.809723,545.364746 494.288635,545.452026 
M565.108887,576.223450 
	C557.493347,576.223450 549.877869,576.223450 542.335144,576.223450 
	C541.348877,568.872559 541.665771,568.516663 548.226624,568.444885 
	C552.542847,568.397644 556.889282,568.533997 561.165527,568.068298 
	C566.456604,567.492004 569.408997,564.014893 569.750488,558.795959 
	C570.194031,552.017334 567.485168,546.166565 562.436890,545.729187 
	C554.439819,545.036133 546.338623,545.544373 538.315552,545.544373 
	C538.315552,548.066895 538.315552,549.999756 538.315552,552.529114 
	C543.874695,552.529114 549.176941,552.342957 554.457825,552.598816 
	C557.636963,552.752808 562.330750,550.622437 562.295471,557.052734 
	C562.261475,563.249146 557.739990,560.931152 554.754944,561.196594 
	C551.452087,561.490234 548.102295,561.216675 544.774597,561.279114 
	C539.166077,561.384460 535.155334,564.623962 534.578308,570.132996 
	C534.150940,574.213684 534.494263,578.375061 534.494263,582.724609 
	C546.407104,582.724609 557.947510,582.724609 569.870483,582.724609 
	C569.304016,579.805176 571.365051,575.940918 565.108887,576.223450 
M455.434082,561.269226 
	C452.105804,561.273132 448.769684,561.133118 445.451019,561.313721 
	C440.144623,561.602478 436.652557,564.716919 436.229736,569.920349 
	C435.885437,574.157104 436.159790,578.444092 436.159790,582.682983 
	C448.110107,582.682983 459.492767,582.682983 471.063385,582.682983 
	C470.941193,580.401611 470.838379,578.481812 470.706543,576.019958 
	C461.419098,576.019958 452.533234,576.019958 443.711823,576.019958 
	C443.203766,568.457764 443.203766,568.456848 450.138489,568.448608 
	C452.634705,568.445618 455.130920,568.450378 457.627136,568.448242 
	C468.717773,568.438782 471.970398,564.894714 470.941406,553.943054 
	C470.488892,549.126831 467.038940,545.531860 462.201477,545.386414 
	C455.717133,545.191345 449.220703,545.424133 442.733490,545.285095 
	C439.743500,545.221008 439.167969,546.644165 439.125336,549.265198 
	C439.079071,552.109436 440.498260,552.569824 442.838715,552.540710 
	C448.495850,552.470215 454.156097,552.608521 459.812073,552.502075 
	C463.516327,552.432312 464.357727,554.439636 464.053009,557.598755 
	C463.524353,563.079895 459.284760,560.744751 455.434082,561.269226 
M572.137817,262.251587 
	C573.104187,263.167511 573.982483,264.205048 575.051758,264.978729 
	C580.304260,268.779083 588.738464,268.101837 593.457703,263.571259 
	C598.393738,258.832550 599.267578,251.143356 595.528564,245.348297 
	C591.726318,239.455215 584.568604,237.216492 578.144104,239.667679 
	C569.480591,242.973190 566.183533,254.328140 572.137817,262.251587 
M563.305298,302.590179 
	C562.563782,303.260071 561.762756,303.875336 561.090515,304.608765 
	C556.869995,309.213196 555.714539,314.529968 558.193665,320.255157 
	C560.491211,325.561249 564.844116,328.598572 570.617371,328.829742 
	C576.584839,329.068695 581.130859,326.232239 584.024109,320.988495 
	C586.840820,315.883484 585.851440,309.266205 581.734802,304.773132 
	C577.410706,300.053711 571.370483,299.187012 563.305298,302.590179 
M394.305664,567.251099 
	C391.028931,567.251099 387.752197,567.251099 384.355011,567.251099 
	C384.355011,569.812134 384.355011,571.719910 384.355011,574.035828 
	C388.560303,574.035828 392.529144,573.909546 396.486328,574.070679 
	C400.598450,574.238098 403.767670,572.768616 405.211304,568.906921 
	C406.726044,564.855042 406.711700,560.751038 403.509674,557.286011 
	C399.369080,552.805420 381.427917,552.881592 377.374176,557.366272 
	C373.667297,561.467163 373.221924,575.814819 376.935791,579.959290 
	C378.170868,581.337463 380.176300,582.680298 381.925568,582.817932 
	C386.830536,583.203613 391.785522,582.952393 396.584778,582.952393 
	C396.584778,580.470337 396.584778,578.558044 396.584778,576.211792 
	C392.637421,576.211792 388.964294,576.531921 385.400452,576.047668 
	C384.054016,575.864624 381.934998,573.844666 381.909119,572.625183 
	C381.638763,559.881470 380.675415,561.556763 391.942627,561.481750 
	C392.941071,561.475098 394.059509,561.195068 394.911713,561.548950 
	C396.407562,562.169922 397.740356,563.183533 399.141418,564.032715 
	C397.840363,565.104797 396.539307,566.176880 394.305664,567.251099 
M544.714050,355.594543 
	C543.538025,355.010620 542.393677,354.348785 541.180725,353.855652 
	C534.435669,351.113464 526.829346,354.249329 523.786499,360.989319 
	C520.780396,367.647675 523.442383,375.563507 529.784729,378.826324 
	C536.326111,382.191620 543.180603,380.530396 547.767151,374.468353 
	C551.693970,369.278259 550.662598,361.655426 544.714050,355.594543 
M254.615814,263.982544 
	C261.235840,267.408478 267.812714,266.689392 271.885010,262.094391 
	C275.616333,257.884125 276.222107,250.391922 273.030365,245.873169 
	C269.948395,241.509827 265.832550,239.330948 260.295502,240.055573 
	C254.729065,240.784027 251.064636,244.019119 249.464279,249.013687 
	C247.660858,254.641922 249.213028,259.774353 254.615814,263.982544 
M495.670227,394.994385 
	C494.706757,393.860901 493.861206,392.594360 492.758911,391.617493 
	C488.470520,387.817047 482.031891,387.291718 477.565613,390.265594 
	C472.283081,393.782928 469.990021,399.299408 471.551331,404.734314 
	C473.738403,412.347748 480.613770,416.193298 488.009888,413.939911 
	C495.930756,411.526642 498.991028,404.498505 495.670227,394.994385 
M296.294159,580.125793 
	C297.109772,585.589783 300.905426,582.105652 303.980896,583.102356 
	C303.980896,575.619324 303.980896,568.724304 303.980896,561.499878 
	C308.024689,561.499878 311.504517,561.405212 314.977081,561.524231 
	C319.183197,561.668396 321.271759,563.874573 321.189331,568.184082 
	C321.097748,572.972290 321.168335,577.763611 321.168335,582.693359 
	C323.821564,582.693359 326.016968,582.693359 328.509613,582.693359 
	C328.509613,577.214966 328.761200,572.060486 328.451385,566.939880 
	C327.971161,559.002441 322.806458,554.384033 314.780792,554.295959 
	C310.622162,554.250244 306.459717,554.383301 302.304291,554.259155 
	C298.097961,554.133606 296.230682,556.064514 296.278412,560.222351 
	C296.350983,566.543396 296.294037,572.865845 296.294159,580.125793 
M262.154999,195.279678 
	C265.508972,202.950363 271.911102,206.050064 278.791199,203.334351 
	C284.716278,200.995590 288.134918,194.250259 286.354401,188.411392 
	C284.288147,181.635513 277.931641,177.805923 271.310913,179.348145 
	C264.616974,180.907425 260.676910,187.363190 262.154999,195.279678 
M341.346649,581.438965 
	C349.455078,582.194763 357.563507,582.950562 365.669312,583.706116 
	C365.669312,580.500183 365.669312,578.583008 365.669312,576.228577 
	C361.592712,576.228577 357.797821,576.244080 354.003052,576.225647 
	C343.818176,576.176147 345.065460,577.264893 344.781311,567.220215 
	C344.660583,562.951843 345.938599,561.129761 350.424255,561.404175 
	C355.486298,561.713989 360.581879,561.475525 365.747192,561.475525 
	C365.747192,558.688660 365.747192,556.751221 365.747192,554.369263 
	C358.922119,554.369263 352.264893,553.957764 345.708405,554.590271 
	C343.382141,554.814697 340.141174,557.132874 339.319092,559.266357 
	C336.528931,566.507263 335.705719,574.012085 341.346649,581.438965 
M479.292786,131.050171 
	C479.134430,131.695068 478.995575,132.345474 478.814606,132.983963 
	C477.314575,138.275040 479.169769,142.388000 483.331879,145.630630 
	C487.401642,148.801315 491.878967,149.021622 496.333282,146.747391 
	C501.070892,144.328522 503.215424,140.193954 502.888580,134.891891 
	C502.580902,129.901016 498.753845,125.414055 493.917908,124.169670 
	C487.953094,122.634804 483.870850,124.411438 479.292786,131.050171 
M434.948639,411.909760 
	C434.547119,410.655670 434.278778,409.338623 433.721161,408.158264 
	C431.222900,402.870178 424.096893,400.112122 418.476196,402.183228 
	C412.565796,404.361084 409.319519,410.514252 410.942017,416.463928 
	C412.792969,423.251373 417.844635,426.728638 424.610992,425.872833 
	C430.545288,425.122223 434.766144,419.780731 434.948639,411.909760 
M530.515381,159.055450 
	C525.267090,158.999954 521.648743,161.627045 519.694763,166.272903 
	C517.935181,170.456360 518.292908,174.684250 521.173218,178.393372 
	C524.652954,182.874344 530.198120,184.244781 535.370483,182.039139 
	C540.671448,179.778656 543.523560,174.956955 542.832520,169.423813 
	C542.110962,163.645752 538.104065,160.036255 530.515381,159.055450 
M304.913971,150.766571 
	C311.080505,152.477783 316.218109,150.717789 319.230560,145.862122 
	C321.963043,141.457703 321.351349,135.345413 317.818390,131.567856 
	C314.254608,127.757339 309.803223,126.937088 305.090942,128.417496 
	C300.390106,129.894287 297.761078,133.627060 297.235962,138.394363 
	C296.626251,143.929138 299.293365,147.929581 304.913971,150.766571 
M565.744446,221.833481 
	C565.795166,220.670807 565.924438,219.505356 565.883301,218.345947 
	C565.680237,212.622253 561.230652,207.688980 555.866028,207.183441 
	C549.640686,206.596786 544.591736,209.970001 543.036194,215.755096 
	C541.389465,221.878998 544.206970,227.401901 550.209778,229.817184 
	C556.230042,232.239487 561.948547,229.537781 565.744446,221.833481 
M372.026489,399.322754 
	C369.928009,392.898346 365.770691,389.709961 360.195984,390.249573 
	C354.869629,390.765167 350.448059,395.112457 350.073364,400.202240 
	C349.559509,407.181763 354.299347,412.661377 361.009064,412.844757 
	C367.622803,413.025513 372.281219,407.700470 372.026489,399.322754 
M348.354645,362.579926 
	C347.370636,363.469513 346.292725,364.276062 345.419403,365.263519 
	C342.220398,368.880890 341.993134,375.152710 344.846344,378.995697 
	C347.906769,383.117828 353.590271,384.750519 358.139099,382.814362 
	C363.964233,380.334991 366.708313,374.226257 364.597931,368.436005 
	C362.329193,362.211060 356.104584,359.725250 348.354645,362.579926 
M568.851685,270.792999 
	C567.142395,263.800385 562.418762,260.155640 556.262146,261.078949 
	C550.100891,262.002930 546.203369,266.842499 546.767151,272.868744 
	C547.333496,278.921783 551.626587,282.887451 557.656799,282.927673 
	C564.093262,282.970612 568.367249,278.651398 568.851685,270.792999 
M359.852112,115.839005 
	C360.514954,115.843292 361.183197,115.904625 361.839813,115.842850 
	C367.029877,115.354523 371.462433,111.324745 371.998199,106.635254 
	C372.647400,100.953346 370.132416,96.216103 365.536896,94.464485 
	C360.620789,92.590683 355.005005,94.369186 351.952209,98.766754 
	C347.464294,105.231682 350.427277,112.318161 359.852112,115.839005 
M320.792175,345.433929 
	C321.511597,344.533112 322.358459,343.706024 322.929260,342.719269 
	C326.152191,337.147827 324.163788,330.335236 318.551117,327.514862 
	C313.196228,324.824036 306.725342,327.334747 304.118988,333.128265 
	C302.195770,337.403198 302.973206,341.201141 306.201233,344.537964 
	C310.089355,348.557220 313.652191,348.905670 320.792175,345.433929 
M546.584351,313.701813 
	C540.518982,310.865814 535.863647,311.688751 532.420593,316.205627 
	C529.396240,320.173248 529.356934,324.908386 532.317566,328.613617 
	C536.334412,333.640686 542.320557,334.278107 547.240356,330.202637 
	C552.280518,326.027435 552.263184,319.733429 546.584351,313.701813 
M372.818481,161.179947 
	C373.411987,160.185654 374.188232,159.256210 374.568024,158.186081 
	C376.435547,152.924133 374.231598,147.427811 369.414154,145.076660 
	C364.674469,142.763458 358.724365,144.502167 355.866730,149.035416 
	C353.110565,153.407684 354.327911,159.428497 358.643646,162.769714 
	C362.556946,165.799362 366.611084,165.493546 372.818481,161.179947 
M413.846680,131.604813 
	C409.668701,128.531830 404.978882,128.602539 401.554260,131.873795 
	C399.263916,134.061569 397.592651,138.163559 397.723022,141.323212 
	C397.919373,146.082275 401.407990,149.180939 406.478394,149.879333 
	C411.135498,150.520782 414.652740,148.732910 416.795715,144.683334 
	C419.286713,139.976166 418.257019,135.714005 413.846680,131.604813 
M431.567535,87.271988 
	C426.135223,81.532814 421.305084,80.629265 416.401642,84.434975 
	C412.172546,87.717316 411.065308,93.274345 413.743469,97.775528 
	C416.531433,102.461220 422.267761,104.188332 427.154053,101.813171 
	C432.427429,99.249886 434.169464,94.170731 431.567535,87.271988 
M316.437836,373.853333 
	C319.981506,368.681274 320.122192,363.557129 316.822662,359.838135 
	C313.573792,356.176239 308.233673,355.242920 304.202606,357.632385 
	C299.054962,360.683838 297.292908,367.304810 300.329254,372.186829 
	C303.656342,377.536316 309.759430,378.401123 316.437836,373.853333 
M298.366455,283.238586 
	C292.817169,277.885193 287.095337,277.865570 282.568298,283.184357 
	C278.736572,287.686218 279.506958,293.871887 284.357452,297.549835 
	C287.840149,300.190613 293.211639,300.071930 296.797241,297.274963 
	C300.507019,294.381165 301.220978,289.546143 298.366455,283.238586 
M447.604584,151.002884 
	C451.959290,154.104828 456.298950,153.239212 459.806854,149.978745 
	C462.803406,147.193588 464.145477,143.325836 462.247894,139.129471 
	C460.444092,135.140488 457.417023,133.006653 452.909698,133.029663 
	C448.407623,133.052658 445.234619,135.157593 443.679932,139.229385 
	C441.975739,143.692719 442.944641,147.693848 447.604584,151.002884 
M483.644653,114.572090 
	C491.609039,114.865143 496.467499,106.025276 492.701416,99.946671 
	C490.243805,95.980057 486.520203,94.193024 482.037750,95.378571 
	C477.692139,96.527924 474.926422,99.661484 474.501923,104.282021 
	C474.081970,108.852760 477.342377,112.638069 483.644653,114.572090 
M486.386597,363.034393 
	C489.771545,360.596039 491.452271,357.420929 490.262024,353.238098 
	C489.203430,349.518005 487.030914,346.772858 482.942047,346.084717 
	C478.609344,345.355499 474.974335,346.630981 472.722046,350.440277 
	C470.489502,354.216278 470.723297,358.271545 473.690460,361.497711 
	C477.023224,365.121399 481.223755,366.056610 486.386597,363.034393 
M279.023651,241.391846 
	C281.590302,244.969543 285.328064,246.984955 289.237244,245.191528 
	C291.980377,243.933090 294.735779,240.903854 295.723877,238.054459 
	C297.077484,234.150925 295.591827,230.139969 291.370819,228.083282 
	C287.647461,226.269073 283.890533,226.476318 280.750275,229.233292 
	C277.138916,232.403915 276.161743,236.341476 279.023651,241.391846 
M498.013855,356.660126 
	C494.037994,363.949066 497.187225,371.320679 504.599731,371.917236 
	C509.290985,372.294800 512.682678,370.102722 514.357727,365.825378 
	C516.058105,361.483307 514.720642,357.682617 511.075226,354.827148 
	C507.383575,351.935455 503.126678,352.423065 498.013855,356.660126 
M484.579834,165.631332 
	C486.692322,170.428146 490.146576,172.829971 495.553955,171.880646 
	C499.871552,171.122650 502.248840,168.375717 502.873108,164.275574 
	C503.750610,158.512329 499.729614,153.704071 494.042175,153.313721 
	C488.117004,152.907074 484.055481,157.734543 484.579834,165.631332 
M275.256378,305.148651 
	C270.185760,305.018585 266.623535,307.286133 265.218170,312.159729 
	C263.924011,316.647522 265.704803,320.239624 269.593018,322.668610 
	C274.229309,325.565002 280.090851,323.704102 282.533447,318.696594 
	C285.267822,313.090942 282.778412,307.920532 275.256378,305.148651 
M534.271790,130.687561 
	C527.150818,132.219437 525.366577,140.807541 529.046021,145.249481 
	C531.833069,148.614151 536.363892,149.841187 540.221375,147.934280 
	C544.244324,145.945526 546.063660,142.481903 545.492859,138.165497 
	C544.833984,133.182648 541.108704,130.656128 534.271790,130.687561 
M568.571533,183.133423 
	C563.048096,185.846268 560.928223,190.302078 562.888367,195.078979 
	C564.637024,199.340729 569.232666,201.657532 573.459167,200.408096 
	C578.234436,198.996414 580.957520,194.115097 579.818237,189.009293 
	C578.876953,184.790863 574.642944,182.386398 568.571533,183.133423 
M446.466400,373.552124 
	C447.559296,367.231750 446.286194,363.593536 441.924713,361.803345 
	C438.139221,360.249451 434.364807,360.487122 431.422516,363.712036 
	C427.633484,367.864960 428.140137,373.327332 432.453430,376.854309 
	C436.854645,380.453156 441.939331,379.471588 446.466400,373.552124 
M295.226624,187.151230 
	C297.610504,193.361328 301.885193,195.962936 306.814117,194.203445 
	C310.916046,192.739182 313.454315,188.471069 312.656860,184.378922 
	C311.848511,180.230820 307.911041,177.060104 303.744293,177.201889 
	C299.071625,177.360886 295.991730,180.660004 295.226624,187.151230 
M531.848083,194.172577 
	C528.076172,187.278503 520.201416,185.939438 516.403870,191.624359 
	C514.084229,195.096909 513.806885,198.963928 516.506409,202.196030 
	C518.902222,205.064468 522.144836,206.655533 526.221619,205.122070 
	C531.055115,203.304001 532.678223,199.852997 531.848083,194.172577 
M460.470367,394.013702 
	C465.461029,391.793396 467.495117,387.636414 465.873627,382.971313 
	C464.416870,378.780060 459.594879,376.248230 455.500702,377.524872 
	C451.060089,378.909546 448.187836,383.579834 449.088226,387.951538 
	C449.990997,392.334717 454.469452,395.016022 460.470367,394.013702 
M384.633270,369.610474 
	C386.091553,373.766571 389.458344,376.112244 393.371124,375.336487 
	C396.130829,374.789368 399.769257,372.229797 400.531860,369.791870 
	C401.363220,367.134125 400.248535,362.647064 398.268921,360.693542 
	C396.492432,358.940399 392.084076,358.527496 389.386719,359.342834 
	C385.261963,360.589691 383.491211,364.361633 384.633270,369.610474 
M531.198303,244.021790 
	C533.430725,247.274567 536.731995,248.917419 540.200623,247.282532 
	C542.539856,246.179962 544.860901,243.577911 545.708557,241.132965 
	C546.829285,237.900665 545.515869,234.755661 542.106689,232.750015 
	C538.730896,230.763977 535.623962,231.242950 532.896851,233.453598 
	C529.711853,236.035446 529.097534,239.508087 531.198303,244.021790 
M345.386993,140.381073 
	C338.863495,135.944199 331.988434,137.850479 331.103333,144.349228 
	C330.578033,148.206238 331.876740,151.876709 335.389496,152.938263 
	C338.079712,153.751221 342.017029,153.156448 344.406158,151.631393 
	C348.332947,149.124832 347.850372,144.929947 345.386993,140.381073 
M411.746643,385.898590 
	C408.047089,381.392517 404.088287,380.263916 400.303009,382.636200 
	C396.819153,384.819580 395.412323,389.457458 397.175232,392.947388 
	C399.047272,396.653473 403.150452,398.298492 407.140808,396.942719 
	C411.409302,395.492462 413.041718,391.991150 411.746643,385.898590 
M347.963531,353.737732 
	C352.065277,355.921600 356.220123,355.404572 358.366486,351.548126 
	C359.686462,349.176453 359.677399,345.024841 358.482117,342.524872 
	C356.429993,338.232758 350.660400,337.823944 346.967316,340.858246 
	C343.048401,344.078094 343.178650,348.629303 347.963531,353.737732 
M279.108124,569.495483 
	C279.108124,573.929260 279.108124,578.363098 279.108124,582.798828 
	C281.669586,582.798828 283.601135,582.798828 285.540161,582.798828 
	C285.540161,573.201599 285.540161,563.846863 285.540161,554.688538 
	C283.216644,554.688538 281.310028,554.688538 279.515076,554.688538 
	C279.320984,555.397644 279.161865,555.712036 279.159576,556.027649 
	C279.129547,560.185913 279.121613,564.344421 279.108124,569.495483 
M384.216217,129.709824 
	C385.210876,129.774536 386.204620,129.866608 387.200317,129.899292 
	C391.720367,130.047592 394.044434,127.219803 394.679016,123.356644 
	C395.294006,119.612411 393.413971,116.640739 389.744110,115.121758 
	C386.148315,113.633430 381.995728,115.112434 380.044189,118.800385 
	C377.602295,123.415024 379.780457,126.708679 384.216217,129.709824 
M434.051331,123.332817 
	C438.660309,127.465408 442.796478,127.576523 445.917023,123.651566 
	C448.937317,119.852692 448.547852,114.516144 444.377502,112.700890 
	C441.978271,111.656525 438.260864,111.826103 435.872192,112.976349 
	C431.790070,114.942062 431.950653,118.918388 434.051331,123.332817 
M315.062805,312.580505 
	C314.909058,316.451813 316.828613,319.416534 320.454498,319.701843 
	C322.989838,319.901337 326.698303,318.744965 328.031586,316.874542 
	C329.377960,314.985779 329.334869,311.023163 328.226196,308.806549 
	C327.320129,306.995056 323.920868,305.451019 321.677429,305.516571 
	C318.272949,305.615997 315.498505,307.807983 315.062805,312.580505 
M539.143921,291.004333 
	C543.478638,286.566711 543.679626,282.280548 539.698364,279.180786 
	C536.090210,276.371521 531.033203,276.865723 529.086182,280.917480 
	C528.039124,283.096252 527.946106,286.551147 528.952332,288.720795 
	C530.782043,292.666046 534.699829,292.597015 539.143921,291.004333 
M311.844788,264.480255 
	C308.646454,262.052795 305.128601,262.469818 302.971497,265.239197 
	C301.513275,267.111328 300.751801,270.883545 301.679993,272.871460 
	C302.589905,274.820282 306.003113,276.603271 308.368835,276.671021 
	C314.183655,276.837433 316.184570,270.575958 311.844788,264.480255 
M508.130920,325.509491 
	C508.494965,329.043182 510.307098,331.893372 513.863464,331.807556 
	C516.252930,331.749969 519.476257,330.328796 520.694031,328.456116 
	C521.759644,326.817474 521.347717,323.115204 520.103516,321.404694 
	C518.982422,319.863434 515.482422,318.723663 513.693054,319.336945 
	C511.501526,320.088013 509.998474,322.847931 508.130920,325.509491 
M315.820984,220.617523 
	C313.595398,218.041092 310.635956,217.041565 307.969543,219.068695 
	C306.155731,220.447617 304.270844,223.259186 304.426849,225.274567 
	C304.583496,227.298035 306.884613,229.869537 308.895966,230.808670 
	C310.494965,231.555267 313.615173,230.859360 315.097809,229.636887 
	C317.664093,227.520874 318.111877,224.333206 315.820984,220.617523 
M332.080170,190.631363 
	C337.320007,187.968872 338.970642,182.189835 334.922699,179.518097 
	C333.076996,178.299896 329.587799,177.801041 327.800049,178.759354 
	C325.980103,179.734955 324.253143,182.988403 324.419800,185.091080 
	C324.696045,188.576004 327.405731,190.810989 332.080170,190.631363 
M279.073395,546.401855 
	C279.485107,551.829834 283.015594,549.020264 285.677307,549.111816 
	C285.677307,547.136536 285.677307,545.423157 285.677307,542.117432 
	C282.971527,543.536682 281.025452,544.557495 279.073395,546.401855 
z"/>
<path fill="#C9C9C9" opacity="1.000000" stroke="none" 
	d="
M400.301575,303.806641 
	C395.099487,299.299103 390.241486,294.938446 384.492584,289.778076 
	C392.195221,285.416840 398.392029,281.792389 404.751556,278.480377 
	C405.412201,278.136353 407.458496,279.354980 408.147705,280.345490 
	C412.013336,285.901093 417.580383,286.766510 423.546875,285.895416 
	C429.122345,285.081360 432.120605,280.964844 432.160645,274.298645 
	C432.284576,253.664490 432.389709,233.027908 432.172180,212.395752 
	C432.122894,207.723862 433.161133,205.834106 438.164246,206.205643 
	C444.102844,206.646652 450.099243,206.309372 456.575745,206.309372 
	C456.679962,208.185181 456.843170,209.768188 456.844482,211.351349 
	C456.861664,232.152985 456.743469,252.955429 456.889862,273.756042 
	C457.019287,292.146881 442.694580,306.677368 423.296875,307.992859 
	C415.428436,308.526459 407.796356,307.540070 400.301575,303.806641 
z"/>
<path fill="#C5C5C5" opacity="1.000000" stroke="none" 
	d="
M109.479408,524.761108 
	C99.507439,522.854126 96.291145,519.038574 96.265266,509.491730 
	C96.238632,499.668427 96.228027,489.844849 96.269211,480.021606 
	C96.310417,470.190765 101.171448,465.225433 110.851921,465.122986 
	C116.512161,465.063049 122.177147,464.993713 127.833672,465.153046 
	C135.735870,465.375641 140.825699,470.571289 140.877441,478.411682 
	C140.948883,489.233582 140.934631,500.056488 140.883987,510.878632 
	C140.844025,519.417358 135.964706,524.489197 127.405937,524.740356 
	C121.583549,524.911194 115.752106,524.773010 109.479408,524.761108 
M119.522018,512.476807 
	C121.944984,512.476807 124.367950,512.476807 127.234291,512.476807 
	C127.234291,503.978119 127.234291,496.205322 127.234291,488.432495 
	C127.234283,476.786835 127.233109,476.929321 115.729996,476.834717 
	C111.491821,476.799896 109.703728,478.088013 109.847122,482.539520 
	C110.103767,490.507111 110.214073,498.503876 109.811531,506.459351 
	C109.560211,511.426361 111.355598,513.159302 116.055038,512.493103 
	C116.869492,512.377686 117.714371,512.476807 119.522018,512.476807 
z"/>
<path fill="#C5C5C5" opacity="1.000000" stroke="none" 
	d="
M233.730988,502.970367 
	C233.723282,506.292511 233.853394,509.129028 233.680984,511.947083 
	C233.235718,519.225342 228.749435,524.173035 221.495239,524.630005 
	C214.867203,525.047485 208.175735,525.037415 201.543701,524.661011 
	C193.744431,524.218384 189.187714,519.099304 189.139771,511.329346 
	C189.072006,500.349731 189.072052,489.369110 189.139755,478.389496 
	C189.187958,470.569611 194.294968,465.355774 202.177307,465.151825 
	C208.162399,464.996948 214.157867,464.992645 220.142944,465.146271 
	C228.669418,465.365082 233.569763,470.383575 233.701721,479.019379 
	C233.821152,486.836700 233.729538,494.657227 233.730988,502.970367 
M213.325806,476.910126 
	C211.497009,476.910248 209.646240,477.091644 207.843903,476.873322 
	C203.894135,476.394867 202.387878,477.933258 202.706512,481.930389 
	C202.996216,485.564880 202.767197,489.240662 202.767120,492.898254 
	C202.766983,499.308350 202.767075,505.718445 202.767075,512.473694 
	C207.536316,512.473694 211.517548,512.326111 215.482269,512.518494 
	C218.892029,512.683960 220.241135,511.464386 220.165527,507.936493 
	C219.983871,499.461426 219.924805,490.974304 220.181442,482.503113 
	C220.317657,478.007263 218.453979,476.423492 213.325806,476.910126 
z"/>
<path fill="#C5C5C5" opacity="1.000000" stroke="none" 
	d="
M673.712646,498.995087 
	C673.708069,503.485779 673.828064,507.482635 673.672546,511.468750 
	C673.366333,519.317078 668.320740,524.449890 660.444153,524.721863 
	C654.297180,524.934143 648.127380,524.981812 641.985168,524.708984 
	C633.936584,524.351379 629.169312,519.251221 629.128723,511.301727 
	C629.072632,500.323883 629.067932,489.345276 629.130737,478.367523 
	C629.175354,470.570923 634.291931,465.352875 642.171936,465.151428 
	C648.156067,464.998474 654.150391,464.992462 660.134399,465.146149 
	C668.652649,465.364838 673.525208,470.379944 673.683044,479.035583 
	C673.801392,485.520538 673.710449,492.009308 673.712646,498.995087 
M649.557129,476.910126 
	C647.165466,477.524719 643.016479,475.138306 642.875061,479.698669 
	C642.541992,490.435181 642.768311,501.189026 642.768311,512.474243 
	C647.328186,512.474243 651.288147,512.299194 655.225037,512.525452 
	C658.875793,512.735229 660.292297,511.450500 660.166382,507.680817 
	C659.933472,500.706451 660.073608,493.718628 660.106689,486.736633 
	C660.155884,476.356201 660.782410,476.811859 649.557129,476.910126 
z"/>
<path fill="#C5C5C5" opacity="1.000000" stroke="none" 
	d="
M526.180237,492.001770 
	C526.182739,487.009644 526.096802,482.514801 526.208923,478.024872 
	C526.369202,471.605652 530.054382,466.236298 536.265930,465.618134 
	C544.160767,464.832397 552.263489,464.729126 560.140503,465.584808 
	C567.370728,466.370178 570.782104,471.416809 570.826904,478.860840 
	C570.891907,489.676086 570.915649,500.492706 570.817993,511.307465 
	C570.746094,519.265076 565.860901,524.375366 557.829895,524.709473 
	C551.683960,524.965088 545.512207,524.945862 539.364136,524.718872 
	C531.095215,524.413513 526.290283,519.285706 526.197083,510.970825 
	C526.128052,504.815002 526.181396,498.657806 526.180237,492.001770 
M550.428223,476.909027 
	C548.095581,476.913696 545.678467,476.550507 543.461609,477.059479 
	C542.107239,477.370392 540.060974,478.995331 540.032043,480.075745 
	C539.769409,489.899170 539.806274,499.734131 540.004517,509.560760 
	C540.024231,510.539459 541.647888,512.256958 542.607056,512.315186 
	C547.336609,512.602356 552.093201,512.445740 557.165527,512.445740 
	C557.165527,501.978668 556.930237,492.331940 557.267334,482.705231 
	C557.429565,478.073456 556.033691,476.115326 550.428223,476.909027 
z"/>
<path fill="#C5C5C5" opacity="1.000000" stroke="none" 
	d="
M467.092743,507.995605 
	C467.092743,493.881683 467.092743,480.266632 467.092743,466.744476 
	C473.478760,464.813019 477.744141,466.362488 481.094391,471.960480 
	C485.590118,479.472382 490.784271,486.567291 495.709290,493.820343 
	C496.610382,495.147461 497.658051,496.375031 499.643097,497.378052 
	C499.643097,487.225189 499.643097,477.072296 499.643097,466.515198 
	C503.825958,466.515198 507.386078,466.515198 511.374146,466.515198 
	C511.374146,485.215332 511.374146,504.090332 511.374146,523.002197 
	C504.064850,525.079163 502.365326,524.502686 498.362244,518.616089 
	C493.057190,510.814972 487.738220,503.023285 482.402863,495.242889 
	C481.606598,494.081726 480.688385,493.004181 478.924744,490.719818 
	C478.924744,502.508392 478.924744,512.853027 478.924744,523.489258 
	C474.792542,523.489258 471.230225,523.489258 467.092743,523.489258 
	C467.092743,518.379822 467.092743,513.437134 467.092743,507.995605 
z"/>
<path fill="#C5C5C5" opacity="1.000000" stroke="none" 
	d="
M438.103638,509.033630 
	C438.103638,506.221893 438.103638,503.902527 438.103638,500.846313 
	C433.004669,500.846313 428.077545,500.674805 423.186035,501.015045 
	C422.370605,501.071747 421.123657,503.333405 421.077515,504.612274 
	C420.855835,510.757446 420.977875,516.915039 420.977875,523.777893 
	C417.146729,523.777893 413.534058,523.974548 409.969391,523.647949 
	C409.005280,523.559509 407.421967,521.892944 407.413910,520.939819 
	C407.260529,502.830719 407.300781,484.719971 407.300781,466.359558 
	C411.967651,466.359558 416.078003,466.359558 420.976837,466.359558 
	C420.976837,472.357452 421.137604,478.445953 420.914093,484.520264 
	C420.788208,487.940277 421.800385,489.153717 425.396332,489.173340 
	C438.104370,489.242584 438.103668,489.375702 438.103668,476.826080 
	C438.103668,473.506897 438.103638,470.187714 438.103638,466.488770 
	C442.579224,466.488770 446.807861,466.488770 451.404602,466.488770 
	C451.404602,485.301117 451.404602,504.191925 451.404602,523.438354 
	C447.153137,523.438354 442.932800,523.438354 438.103638,523.438354 
	C438.103638,518.742493 438.103638,514.134277 438.103638,509.033630 
z"/>
<path fill="#C4C4C4" opacity="1.000000" stroke="none" 
	d="
M728.400391,471.001099 
	C728.328674,473.074036 728.257019,474.709808 728.160217,476.920410 
	C720.567993,476.920410 713.292603,476.958923 706.017944,476.898804 
	C703.592896,476.878754 701.729492,477.150574 701.747925,480.276764 
	C701.809814,490.743103 701.771423,501.210022 701.771423,512.065735 
	C706.704163,512.065735 711.235107,512.065735 716.072327,512.065735 
	C716.072327,509.116150 716.072327,506.356079 716.072327,503.242523 
	C714.378296,503.007446 712.645203,502.766937 710.555054,502.476898 
	C710.555054,499.086121 710.555054,495.697906 710.555054,491.578888 
	C716.279114,491.578888 721.897339,491.455505 727.496643,491.725464 
	C728.248413,491.761688 729.467346,493.761505 729.509583,494.888062 
	C729.715515,500.379303 729.788208,505.891449 729.542297,511.379822 
	C729.222168,518.523865 726.244019,522.943054 719.174194,523.868591 
	C711.901489,524.820618 704.290527,524.636963 697.010071,523.630249 
	C691.015015,522.801270 688.201782,518.243713 688.145630,512.106018 
	C688.041992,500.775208 688.050171,489.442261 688.138489,478.111237 
	C688.195557,470.787750 693.193359,465.412018 700.495972,465.203918 
	C709.475037,464.948090 718.466980,465.142853 728.013977,465.142853 
	C728.151855,467.077087 728.276123,468.820496 728.400391,471.001099 
z"/>
<path fill="#C6C6C6" opacity="1.000000" stroke="none" 
	d="
M327.550568,483.980621 
	C327.612762,485.788208 327.674896,487.104645 327.758423,488.874817 
	C333.979370,488.874817 340.070282,488.874817 346.536438,488.874817 
	C346.536438,492.885406 346.536438,496.445099 346.536438,500.528839 
	C340.527588,500.528839 334.441650,500.528839 327.958252,500.528839 
	C327.958252,504.552155 327.958252,508.071289 327.958252,511.976593 
	C334.904755,511.976593 341.682800,511.976593 348.978455,511.976593 
	C348.978455,516.008972 348.978455,519.669739 348.978455,523.851135 
	C337.865479,523.851135 326.912598,523.927979 315.966034,523.700439 
	C315.121765,523.682800 313.618073,521.529724 313.607422,520.358459 
	C313.453064,503.364868 313.438141,486.368683 313.634125,469.375946 
	C313.648254,468.151978 315.529419,465.922546 316.585266,465.896545 
	C327.190460,465.635406 337.804565,465.737610 348.627563,465.737610 
	C348.627563,469.949646 348.627563,473.559113 348.627563,477.697021 
	C341.740814,477.697021 334.997589,477.697021 327.807312,477.697021 
	C327.707001,479.959595 327.628754,481.724548 327.550568,483.980621 
z"/>
<path fill="#C4C4C4" opacity="1.000000" stroke="none" 
	d="
M769.558228,479.412842 
	C769.984924,478.276550 770.171387,477.466644 770.440857,476.685333 
	C774.410461,465.176453 774.413086,465.177368 787.930603,466.492767 
	C783.747620,477.583984 781.541077,489.895386 774.913147,498.981567 
	C769.530273,506.360840 770.296631,513.000488 769.786377,520.365295 
	C769.719849,521.326172 769.632507,522.285583 769.533569,523.507629 
	C765.039856,523.507629 760.815369,523.507629 756.096924,523.507629 
	C756.096924,517.954529 756.285522,512.655457 755.985474,507.384277 
	C755.891724,505.738068 754.619751,504.074005 753.636475,502.583435 
	C752.205078,500.413544 749.993225,498.609131 749.081726,496.271576 
	C745.304871,486.585876 741.891785,476.758301 738.029907,466.113861 
	C742.754089,466.113861 746.840759,465.881073 750.867798,466.268646 
	C751.947815,466.372559 753.268188,468.209869 753.756165,469.520325 
	C756.177734,476.022827 758.282471,482.643188 760.692017,489.150482 
	C761.123596,490.315979 762.463379,491.145172 763.383789,492.129639 
	C764.312805,491.136322 765.607300,490.296021 766.099731,489.119934 
	C767.374023,486.076447 768.294678,482.884918 769.558228,479.412842 
z"/>
<path fill="#C6C6C6" opacity="1.000000" stroke="none" 
	d="
M364.553406,519.375732 
	C363.303833,515.670166 361.546967,512.293884 361.393890,508.846405 
	C360.981079,499.550507 361.211639,490.224030 361.262085,480.910095 
	C361.314758,471.186737 366.264740,466.215118 375.965393,466.125122 
	C382.441437,466.065063 388.918488,466.113739 395.889832,466.113739 
	C395.889832,470.023010 395.889832,473.705322 395.889832,477.914642 
	C390.807343,477.914642 385.848145,478.195282 380.935791,477.835663 
	C376.035950,477.476929 374.608887,479.351074 374.854492,484.109131 
	C375.231232,491.407990 375.156616,498.748535 374.873657,506.055878 
	C374.716095,510.124329 375.883179,511.804657 380.161865,511.541595 
	C385.270752,511.227570 390.413666,511.467499 395.960297,511.467499 
	C395.960297,515.610291 395.960297,519.343323 395.960297,523.917175 
	C385.473114,522.298645 374.436615,527.264221 364.553406,519.375732 
z"/>
<path fill="#C4C4C4" opacity="1.000000" stroke="none" 
	d="
M278.066711,465.618835 
	C287.512238,465.618927 296.467987,465.618927 305.673859,465.618927 
	C305.673859,469.843506 305.673859,473.456512 305.673859,477.842468 
	C303.139984,477.842468 300.531067,478.054108 297.970337,477.792999 
	C294.099701,477.398346 292.704590,478.667480 292.797089,482.769012 
	C293.063538,494.583618 292.891113,506.408081 292.891113,518.228699 
	C292.891113,519.863342 292.891113,521.497986 292.891113,522.897339 
	C292.235779,523.310120 291.973358,523.613220 291.690430,523.633728 
	C279.279510,524.531860 279.281006,524.528870 279.283600,512.203247 
	C279.286011,500.925110 279.284149,489.647003 279.284149,477.951263 
	C274.885315,477.951263 270.952545,477.951263 266.618225,477.951263 
	C266.618225,473.980988 266.618225,470.422394 266.618225,465.618774 
	C270.153137,465.618774 273.865051,465.618774 278.066711,465.618835 
z"/>
<path fill="#C5C5C5" opacity="1.000000" stroke="none" 
	d="
M586.085632,483.002350 
	C586.085632,477.219940 586.085632,471.937012 586.085632,466.383850 
	C590.757019,466.383850 594.971436,466.383850 599.719299,466.383850 
	C599.719299,478.914429 599.678406,491.177368 599.732178,503.439880 
	C599.775635,513.352966 598.492981,511.981598 608.556519,512.083801 
	C611.867676,512.117432 615.179504,512.089111 618.970459,512.089111 
	C618.970459,516.070129 618.970459,519.738953 618.970459,523.642822 
	C608.097168,523.642822 597.496216,523.642822 586.085632,523.642822 
	C586.085632,510.270905 586.085632,496.886353 586.085632,483.002350 
z"/>
<path fill="#C2C2C2" opacity="1.000000" stroke="none" 
	d="
M150.577576,523.295349 
	C150.548141,519.738403 149.535339,515.703308 151.108841,513.719543 
	C152.527679,511.930756 156.778275,512.388062 160.338654,511.755524 
	C160.338654,496.800140 160.338654,481.732727 160.338654,466.387390 
	C165.143890,466.387390 169.394318,466.387390 174.159546,466.387390 
	C174.283325,468.060303 174.501129,469.661377 174.504547,471.262909 
	C174.531265,483.749512 174.302719,496.240906 174.574539,508.721619 
	C174.852264,521.473328 166.171890,527.639526 150.577576,523.295349 
z"/>
<path fill="#C4C4C4" opacity="1.000000" stroke="none" 
	d="
M81.757050,512.428894 
	C78.910484,523.552185 74.007195,526.029724 58.084270,524.373108 
	C58.084270,522.547913 58.084270,520.634277 58.084270,518.720642 
	C58.084270,516.913818 58.084270,515.107056 58.084270,513.440674 
	C58.902031,513.046753 59.326946,512.707092 59.792038,512.638000 
	C68.079720,511.407379 68.080780,511.414459 68.080788,502.689514 
	C68.080803,490.743042 68.080803,478.796600 68.080803,466.477081 
	C72.561081,466.477081 76.787178,466.477081 81.778214,466.477081 
	C81.778214,481.572296 81.778214,496.780457 81.757050,512.428894 
z"/>
<path fill="#BEBEBE" opacity="1.000000" stroke="none" 
	d="
M266.607910,547.339233 
	C267.262909,551.414795 265.909637,552.823975 262.045349,552.612427 
	C256.398285,552.303345 250.721100,552.578918 245.057571,552.522888 
	C241.838242,552.490967 239.425323,553.197571 239.482758,557.131836 
	C239.537460,560.878052 241.902817,561.334167 244.883865,561.279846 
	C249.380310,561.197815 253.881073,561.184509 258.376984,561.281433 
	C265.478424,561.434448 270.017548,566.027100 269.906097,572.801636 
	C269.797485,579.402527 265.838593,583.000488 258.543579,583.029785 
	C249.920029,583.064392 241.296249,583.037903 232.454437,583.037903 
	C232.454437,580.643616 232.454437,578.741028 232.454437,576.219788 
	C240.634979,576.219788 248.583954,576.159790 256.531219,576.250366 
	C259.554779,576.284790 262.846191,576.159607 262.787598,572.422302 
	C262.732086,568.880981 259.553986,568.418823 256.459412,568.421753 
	C251.477722,568.426575 246.458511,568.523071 241.523361,567.971008 
	C235.197998,567.263245 232.174530,563.498352 232.111710,557.259888 
	C232.049225,551.056458 235.528275,545.968872 241.319153,545.551208 
	C249.107315,544.989502 256.965271,545.356628 264.791931,545.444885 
	C265.389587,545.451660 265.976532,546.408386 266.607910,547.339233 
z"/>
<path fill="#BEBEBE" opacity="1.000000" stroke="none" 
	d="
M614.492798,581.805664 
	C610.675598,582.501709 606.932800,582.944153 603.184082,583.001892 
	C595.390442,583.122070 587.593689,583.038330 579.292175,583.038330 
	C579.292175,578.362244 579.002197,574.060547 579.368225,569.815430 
	C579.790894,564.914551 583.760803,561.473145 588.777588,561.303040 
	C593.435303,561.145020 598.105652,561.152222 602.764099,561.292969 
	C605.953918,561.389282 607.212280,560.191406 607.200195,556.915405 
	C607.187988,553.604187 605.759460,552.482178 602.674072,552.517151 
	C596.063843,552.592041 589.452148,552.540100 582.985596,552.540100 
	C581.735657,545.509644 581.880066,545.323303 588.127380,545.314209 
	C593.622986,545.306274 599.120972,545.216736 604.613525,545.346130 
	C610.489563,545.484497 614.090027,549.505920 614.584412,556.189819 
	C615.066223,562.703674 612.361084,567.066467 606.507019,567.943420 
	C602.106201,568.602600 597.565247,568.385803 593.085205,568.442505 
	C586.318115,568.528137 586.317566,568.485046 587.032715,576.220154 
	C594.394653,576.220154 601.840454,576.421570 609.267944,576.139832 
	C613.312744,575.986450 615.315796,577.076660 614.492798,581.805664 
z"/>
<path fill="#C4C4C4" opacity="1.000000" stroke="none" 
	d="
M494.719055,545.413147 
	C499.809723,545.364746 504.471191,545.282043 509.129883,545.361755 
	C517.419983,545.503601 523.466553,550.780396 524.933167,559.027893 
	C526.898071,570.077148 524.129211,579.568481 516.122498,581.349854 
	C507.843567,583.191711 498.669983,582.945618 490.238861,581.526611 
	C484.060181,580.486755 480.957275,574.457031 481.072968,567.717041 
	C481.132843,564.226318 480.606445,560.570862 481.463654,557.281311 
	C483.143738,550.833984 487.726135,546.919189 494.719055,545.413147 
M516.936462,556.252380 
	C515.631104,555.165710 514.325684,554.078979 512.187927,552.884949 
	C507.738525,552.743591 503.289062,552.485352 498.839691,552.487000 
	C491.336853,552.489746 487.909760,555.840698 487.955139,563.289856 
	C487.972961,566.213989 488.620026,569.134155 489.068146,572.705078 
	C490.009247,573.481750 490.950348,574.258484 492.729675,575.233032 
	C498.955017,575.505493 505.218536,576.309143 511.392426,575.865479 
	C515.578308,575.564636 517.849548,571.835327 517.983398,567.701477 
	C518.099304,564.122131 517.377747,560.515747 516.936462,556.252380 
z"/>
<path fill="#BFBFBF" opacity="1.000000" stroke="none" 
	d="
M565.564697,576.223999 
	C571.365051,575.940918 569.304016,579.805176 569.870483,582.724609 
	C557.947510,582.724609 546.407104,582.724609 534.494263,582.724609 
	C534.494263,578.375061 534.150940,574.213684 534.578308,570.132996 
	C535.155334,564.623962 539.166077,561.384460 544.774597,561.279114 
	C548.102295,561.216675 551.452087,561.490234 554.754944,561.196594 
	C557.739990,560.931152 562.261475,563.249146 562.295471,557.052734 
	C562.330750,550.622437 557.636963,552.752808 554.457825,552.598816 
	C549.176941,552.342957 543.874695,552.529114 538.315552,552.529114 
	C538.315552,549.999756 538.315552,548.066895 538.315552,545.544373 
	C546.338623,545.544373 554.439819,545.036133 562.436890,545.729187 
	C567.485168,546.166565 570.194031,552.017334 569.750488,558.795959 
	C569.408997,564.014893 566.456604,567.492004 561.165527,568.068298 
	C556.889282,568.533997 552.542847,568.397644 548.226624,568.444885 
	C541.665771,568.516663 541.348877,568.872559 542.335144,576.223450 
	C549.877869,576.223450 557.493347,576.223450 565.564697,576.223999 
z"/>
<path fill="#C0C0C0" opacity="1.000000" stroke="none" 
	d="
M455.917297,561.269226 
	C459.284760,560.744751 463.524353,563.079895 464.053009,557.598755 
	C464.357727,554.439636 463.516327,552.432312 459.812073,552.502075 
	C454.156097,552.608521 448.495850,552.470215 442.838715,552.540710 
	C440.498260,552.569824 439.079071,552.109436 439.125336,549.265198 
	C439.167969,546.644165 439.743500,545.221008 442.733490,545.285095 
	C449.220703,545.424133 455.717133,545.191345 462.201477,545.386414 
	C467.038940,545.531860 470.488892,549.126831 470.941406,553.943054 
	C471.970398,564.894714 468.717773,568.438782 457.627136,568.448242 
	C455.130920,568.450378 452.634705,568.445618 450.138489,568.448608 
	C443.203766,568.456848 443.203766,568.457764 443.711823,576.019958 
	C452.533234,576.019958 461.419098,576.019958 470.706543,576.019958 
	C470.838379,578.481812 470.941193,580.401611 471.063385,582.682983 
	C459.492767,582.682983 448.110107,582.682983 436.159790,582.682983 
	C436.159790,578.444092 435.885437,574.157104 436.229736,569.920349 
	C436.652557,564.716919 440.144623,561.602478 445.451019,561.313721 
	C448.769684,561.133118 452.105804,561.273132 455.917297,561.269226 
z"/>
<path fill="#C7C7C7" opacity="1.000000" stroke="none" 
	d="
M571.902222,261.960999 
	C566.183533,254.328140 569.480591,242.973190 578.144104,239.667679 
	C584.568604,237.216492 591.726318,239.455215 595.528564,245.348297 
	C599.267578,251.143356 598.393738,258.832550 593.457703,263.571259 
	C588.738464,268.101837 580.304260,268.779083 575.051758,264.978729 
	C573.982483,264.205048 573.104187,263.167511 571.902222,261.960999 
z"/>
<path fill="#C7C7C7" opacity="1.000000" stroke="none" 
	d="
M563.635803,302.406921 
	C571.370483,299.187012 577.410706,300.053711 581.734802,304.773132 
	C585.851440,309.266205 586.840820,315.883484 584.024109,320.988495 
	C581.130859,326.232239 576.584839,329.068695 570.617371,328.829742 
	C564.844116,328.598572 560.491211,325.561249 558.193665,320.255157 
	C555.714539,314.529968 556.869995,309.213196 561.090515,304.608765 
	C561.762756,303.875336 562.563782,303.260071 563.635803,302.406921 
z"/>
<path fill="#BFBFBF" opacity="1.000000" stroke="none" 
	d="
M394.771973,567.250061 
	C396.539307,566.176880 397.840363,565.104797 399.141418,564.032715 
	C397.740356,563.183533 396.407562,562.169922 394.911713,561.548950 
	C394.059509,561.195068 392.941071,561.475098 391.942627,561.481750 
	C380.675415,561.556763 381.638763,559.881470 381.909119,572.625183 
	C381.934998,573.844666 384.054016,575.864624 385.400452,576.047668 
	C388.964294,576.531921 392.637421,576.211792 396.584778,576.211792 
	C396.584778,578.558044 396.584778,580.470337 396.584778,582.952393 
	C391.785522,582.952393 386.830536,583.203613 381.925568,582.817932 
	C380.176300,582.680298 378.170868,581.337463 376.935791,579.959290 
	C373.221924,575.814819 373.667297,561.467163 377.374176,557.366272 
	C381.427917,552.881592 399.369080,552.805420 403.509674,557.286011 
	C406.711700,560.751038 406.726044,564.855042 405.211304,568.906921 
	C403.767670,572.768616 400.598450,574.238098 396.486328,574.070679 
	C392.529144,573.909546 388.560303,574.035828 384.355011,574.035828 
	C384.355011,571.719910 384.355011,569.812134 384.355011,567.251099 
	C387.752197,567.251099 391.028931,567.251099 394.771973,567.250061 
z"/>
<path fill="#C7C7C7" opacity="1.000000" stroke="none" 
	d="
M544.997437,355.843658 
	C550.662598,361.655426 551.693970,369.278259 547.767151,374.468353 
	C543.180603,380.530396 536.326111,382.191620 529.784729,378.826324 
	C523.442383,375.563507 520.780396,367.647675 523.786499,360.989319 
	C526.829346,354.249329 534.435669,351.113464 541.180725,353.855652 
	C542.393677,354.348785 543.538025,355.010620 544.997437,355.843658 
z"/>
<path fill="#C7C7C7" opacity="1.000000" stroke="none" 
	d="
M254.276611,263.829895 
	C249.213028,259.774353 247.660858,254.641922 249.464279,249.013687 
	C251.064636,244.019119 254.729065,240.784027 260.295502,240.055573 
	C265.832550,239.330948 269.948395,241.509827 273.030365,245.873169 
	C276.222107,250.391922 275.616333,257.884125 271.885010,262.094391 
	C267.812714,266.689392 261.235840,267.408478 254.276611,263.829895 
z"/>
<path fill="#C7C7C7" opacity="1.000000" stroke="none" 
	d="
M495.814148,395.340393 
	C498.991028,404.498505 495.930756,411.526642 488.009888,413.939911 
	C480.613770,416.193298 473.738403,412.347748 471.551331,404.734314 
	C469.990021,399.299408 472.283081,393.782928 477.565613,390.265594 
	C482.031891,387.291718 488.470520,387.817047 492.758911,391.617493 
	C493.861206,392.594360 494.706757,393.860901 495.814148,395.340393 
z"/>
<path fill="#BEBEBE" opacity="1.000000" stroke="none" 
	d="
M296.293152,579.656738 
	C296.294037,572.865845 296.350983,566.543396 296.278412,560.222351 
	C296.230682,556.064514 298.097961,554.133606 302.304291,554.259155 
	C306.459717,554.383301 310.622162,554.250244 314.780792,554.295959 
	C322.806458,554.384033 327.971161,559.002441 328.451385,566.939880 
	C328.761200,572.060486 328.509613,577.214966 328.509613,582.693359 
	C326.016968,582.693359 323.821564,582.693359 321.168335,582.693359 
	C321.168335,577.763611 321.097748,572.972290 321.189331,568.184082 
	C321.271759,563.874573 319.183197,561.668396 314.977081,561.524231 
	C311.504517,561.405212 308.024689,561.499878 303.980896,561.499878 
	C303.980896,568.724304 303.980896,575.619324 303.980896,583.102356 
	C300.905426,582.105652 297.109772,585.589783 296.293152,579.656738 
z"/>
<path fill="#C6C6C6" opacity="1.000000" stroke="none" 
	d="
M262.104126,194.898224 
	C260.676910,187.363190 264.616974,180.907425 271.310913,179.348145 
	C277.931641,177.805923 284.288147,181.635513 286.354401,188.411392 
	C288.134918,194.250259 284.716278,200.995590 278.791199,203.334351 
	C271.911102,206.050064 265.508972,202.950363 262.104126,194.898224 
z"/>
<path fill="#C0C0C0" opacity="1.000000" stroke="none" 
	d="
M341.045715,581.178467 
	C335.705719,574.012085 336.528931,566.507263 339.319092,559.266357 
	C340.141174,557.132874 343.382141,554.814697 345.708405,554.590271 
	C352.264893,553.957764 358.922119,554.369263 365.747192,554.369263 
	C365.747192,556.751221 365.747192,558.688660 365.747192,561.475525 
	C360.581879,561.475525 355.486298,561.713989 350.424255,561.404175 
	C345.938599,561.129761 344.660583,562.951843 344.781311,567.220215 
	C345.065460,577.264893 343.818176,576.176147 354.003052,576.225647 
	C357.797821,576.244080 361.592712,576.228577 365.669312,576.228577 
	C365.669312,578.583008 365.669312,580.500183 365.669312,583.706116 
	C357.563507,582.950562 349.455078,582.194763 341.045715,581.178467 
z"/>
<path fill="#C7C7C7" opacity="1.000000" stroke="none" 
	d="
M479.473816,130.713654 
	C483.870850,124.411438 487.953094,122.634804 493.917908,124.169670 
	C498.753845,125.414055 502.580902,129.901016 502.888580,134.891891 
	C503.215424,140.193954 501.070892,144.328522 496.333282,146.747391 
	C491.878967,149.021622 487.401642,148.801315 483.331879,145.630630 
	C479.169769,142.388000 477.314575,138.275040 478.814606,132.983963 
	C478.995575,132.345474 479.134430,131.695068 479.473816,130.713654 
z"/>
<path fill="#C7C7C7" opacity="1.000000" stroke="none" 
	d="
M434.972351,412.320068 
	C434.766144,419.780731 430.545288,425.122223 424.610992,425.872833 
	C417.844635,426.728638 412.792969,423.251373 410.942017,416.463928 
	C409.319519,410.514252 412.565796,404.361084 418.476196,402.183228 
	C424.096893,400.112122 431.222900,402.870178 433.721161,408.158264 
	C434.278778,409.338623 434.547119,410.655670 434.972351,412.320068 
z"/>
<path fill="#C6C6C6" opacity="1.000000" stroke="none" 
	d="
M530.928101,159.063614 
	C538.104065,160.036255 542.110962,163.645752 542.832520,169.423813 
	C543.523560,174.956955 540.671448,179.778656 535.370483,182.039139 
	C530.198120,184.244781 524.652954,182.874344 521.173218,178.393372 
	C518.292908,174.684250 517.935181,170.456360 519.694763,166.272903 
	C521.648743,161.627045 525.267090,158.999954 530.928101,159.063614 
z"/>
<path fill="#C5C5C5" opacity="1.000000" stroke="none" 
	d="
M304.574219,150.595505 
	C299.293365,147.929581 296.626251,143.929138 297.235962,138.394363 
	C297.761078,133.627060 300.390106,129.894287 305.090942,128.417496 
	C309.803223,126.937088 314.254608,127.757339 317.818390,131.567856 
	C321.351349,135.345413 321.963043,141.457703 319.230560,145.862122 
	C316.218109,150.717789 311.080505,152.477783 304.574219,150.595505 
z"/>
<path fill="#C5C5C5" opacity="1.000000" stroke="none" 
	d="
M565.621704,222.213623 
	C561.948547,229.537781 556.230042,232.239487 550.209778,229.817184 
	C544.206970,227.401901 541.389465,221.878998 543.036194,215.755096 
	C544.591736,209.970001 549.640686,206.596786 555.866028,207.183441 
	C561.230652,207.688980 565.680237,212.622253 565.883301,218.345947 
	C565.924438,219.505356 565.795166,220.670807 565.621704,222.213623 
z"/>
<path fill="#C6C6C6" opacity="1.000000" stroke="none" 
	d="
M372.111267,399.689819 
	C372.281219,407.700470 367.622803,413.025513 361.009064,412.844757 
	C354.299347,412.661377 349.559509,407.181763 350.073364,400.202240 
	C350.448059,395.112457 354.869629,390.765167 360.195984,390.249573 
	C365.770691,389.709961 369.928009,392.898346 372.111267,399.689819 
z"/>
<path fill="#C6C6C6" opacity="1.000000" stroke="none" 
	d="
M348.698914,362.402069 
	C356.104584,359.725250 362.329193,362.211060 364.597931,368.436005 
	C366.708313,374.226257 363.964233,380.334991 358.139099,382.814362 
	C353.590271,384.750519 347.906769,383.117828 344.846344,378.995697 
	C341.993134,375.152710 342.220398,368.880890 345.419403,365.263519 
	C346.292725,364.276062 347.370636,363.469513 348.698914,362.402069 
z"/>
<path fill="#C6C6C6" opacity="1.000000" stroke="none" 
	d="
M568.860596,271.194763 
	C568.367249,278.651398 564.093262,282.970612 557.656799,282.927673 
	C551.626587,282.887451 547.333496,278.921783 546.767151,272.868744 
	C546.203369,266.842499 550.100891,262.002930 556.262146,261.078949 
	C562.418762,260.155640 567.142395,263.800385 568.860596,271.194763 
z"/>
<path fill="#C6C6C6" opacity="1.000000" stroke="none" 
	d="
M359.453339,115.796120 
	C350.427277,112.318161 347.464294,105.231682 351.952209,98.766754 
	C355.005005,94.369186 360.620789,92.590683 365.536896,94.464485 
	C370.132416,96.216103 372.647400,100.953346 371.998199,106.635254 
	C371.462433,111.324745 367.029877,115.354523 361.839813,115.842850 
	C361.183197,115.904625 360.514954,115.843292 359.453339,115.796120 
z"/>
<path fill="#C5C5C5" opacity="1.000000" stroke="none" 
	d="
M320.500916,345.679779 
	C313.652191,348.905670 310.089355,348.557220 306.201233,344.537964 
	C302.973206,341.201141 302.195770,337.403198 304.118988,333.128265 
	C306.725342,327.334747 313.196228,324.824036 318.551117,327.514862 
	C324.163788,330.335236 326.152191,337.147827 322.929260,342.719269 
	C322.358459,343.706024 321.511597,344.533112 320.500916,345.679779 
z"/>
<path fill="#C6C6C6" opacity="1.000000" stroke="none" 
	d="
M546.890320,313.936523 
	C552.263184,319.733429 552.280518,326.027435 547.240356,330.202637 
	C542.320557,334.278107 536.334412,333.640686 532.317566,328.613617 
	C529.356934,324.908386 529.396240,320.173248 532.420593,316.205627 
	C535.863647,311.688751 540.518982,310.865814 546.890320,313.936523 
z"/>
<path fill="#C4C4C4" opacity="1.000000" stroke="none" 
	d="
M372.554443,161.460129 
	C366.611084,165.493546 362.556946,165.799362 358.643646,162.769714 
	C354.327911,159.428497 353.110565,153.407684 355.866730,149.035416 
	C358.724365,144.502167 364.674469,142.763458 369.414154,145.076660 
	C374.231598,147.427811 376.435547,152.924133 374.568024,158.186081 
	C374.188232,159.256210 373.411987,160.185654 372.554443,161.460129 
z"/>
<path fill="#C5C5C5" opacity="1.000000" stroke="none" 
	d="
M414.134399,131.846558 
	C418.257019,135.714005 419.286713,139.976166 416.795715,144.683334 
	C414.652740,148.732910 411.135498,150.520782 406.478394,149.879333 
	C401.407990,149.180939 397.919373,146.082275 397.723022,141.323212 
	C397.592651,138.163559 399.263916,134.061569 401.554260,131.873795 
	C404.978882,128.602539 409.668701,128.531830 414.134399,131.846558 
z"/>
<path fill="#C6C6C6" opacity="1.000000" stroke="none" 
	d="
M431.734192,87.622734 
	C434.169464,94.170731 432.427429,99.249886 427.154053,101.813171 
	C422.267761,104.188332 416.531433,102.461220 413.743469,97.775528 
	C411.065308,93.274345 412.172546,87.717316 416.401642,84.434975 
	C421.305084,80.629265 426.135223,81.532814 431.734192,87.622734 
z"/>
<path fill="#C5C5C5" opacity="1.000000" stroke="none" 
	d="
M316.154053,374.121155 
	C309.759430,378.401123 303.656342,377.536316 300.329254,372.186829 
	C297.292908,367.304810 299.054962,360.683838 304.202606,357.632385 
	C308.233673,355.242920 313.573792,356.176239 316.822662,359.838135 
	C320.122192,363.557129 319.981506,368.681274 316.154053,374.121155 
z"/>
<path fill="#C3C3C3" opacity="1.000000" stroke="none" 
	d="
M298.572113,283.550781 
	C301.220978,289.546143 300.507019,294.381165 296.797241,297.274963 
	C293.211639,300.071930 287.840149,300.190613 284.357452,297.549835 
	C279.506958,293.871887 278.736572,287.686218 282.568298,283.184357 
	C287.095337,277.865570 292.817169,277.885193 298.572113,283.550781 
z"/>
<path fill="#C5C5C5" opacity="1.000000" stroke="none" 
	d="
M447.249390,150.860489 
	C442.944641,147.693848 441.975739,143.692719 443.679932,139.229385 
	C445.234619,135.157593 448.407623,133.052658 452.909698,133.029663 
	C457.417023,133.006653 460.444092,135.140488 462.247894,139.129471 
	C464.145477,143.325836 462.803406,147.193588 459.806854,149.978745 
	C456.298950,153.239212 451.959290,154.104828 447.249390,150.860489 
z"/>
<path fill="#C4C4C4" opacity="1.000000" stroke="none" 
	d="
M483.269928,114.524155 
	C477.342377,112.638069 474.081970,108.852760 474.501923,104.282021 
	C474.926422,99.661484 477.692139,96.527924 482.037750,95.378571 
	C486.520203,94.193024 490.243805,95.980057 492.701416,99.946671 
	C496.467499,106.025276 491.609039,114.865143 483.269928,114.524155 
z"/>
<path fill="#C5C5C5" opacity="1.000000" stroke="none" 
	d="
M486.090363,363.275757 
	C481.223755,366.056610 477.023224,365.121399 473.690460,361.497711 
	C470.723297,358.271545 470.489502,354.216278 472.722046,350.440277 
	C474.974335,346.630981 478.609344,345.355499 482.942047,346.084717 
	C487.030914,346.772858 489.203430,349.518005 490.262024,353.238098 
	C491.452271,357.420929 489.771545,360.596039 486.090363,363.275757 
z"/>
<path fill="#C3C3C3" opacity="1.000000" stroke="none" 
	d="
M278.804932,241.085602 
	C276.161743,236.341476 277.138916,232.403915 280.750275,229.233292 
	C283.890533,226.476318 287.647461,226.269073 291.370819,228.083282 
	C295.591827,230.139969 297.077484,234.150925 295.723877,238.054459 
	C294.735779,240.903854 291.980377,243.933090 289.237244,245.191528 
	C285.328064,246.984955 281.590302,244.969543 278.804932,241.085602 
z"/>
<path fill="#C6C6C6" opacity="1.000000" stroke="none" 
	d="
M498.274353,356.372803 
	C503.126678,352.423065 507.383575,351.935455 511.075226,354.827148 
	C514.720642,357.682617 516.058105,361.483307 514.357727,365.825378 
	C512.682678,370.102722 509.290985,372.294800 504.599731,371.917236 
	C497.187225,371.320679 494.037994,363.949066 498.274353,356.372803 
z"/>
<path fill="#C3C3C3" opacity="1.000000" stroke="none" 
	d="
M484.436340,165.266479 
	C484.055481,157.734543 488.117004,152.907074 494.042175,153.313721 
	C499.729614,153.704071 503.750610,158.512329 502.873108,164.275574 
	C502.248840,168.375717 499.871552,171.122650 495.553955,171.880646 
	C490.146576,172.829971 486.692322,170.428146 484.436340,165.266479 
z"/>
<path fill="#C5C5C5" opacity="1.000000" stroke="none" 
	d="
M275.649048,305.181091 
	C282.778412,307.920532 285.267822,313.090942 282.533447,318.696594 
	C280.090851,323.704102 274.229309,325.565002 269.593018,322.668610 
	C265.704803,320.239624 263.924011,316.647522 265.218170,312.159729 
	C266.623535,307.286133 270.185760,305.018585 275.649048,305.181091 
z"/>
<path fill="#C2C2C2" opacity="1.000000" stroke="none" 
	d="
M534.627625,130.551941 
	C541.108704,130.656128 544.833984,133.182648 545.492859,138.165497 
	C546.063660,142.481903 544.244324,145.945526 540.221375,147.934280 
	C536.363892,149.841187 531.833069,148.614151 529.046021,145.249481 
	C525.366577,140.807541 527.150818,132.219437 534.627625,130.551941 
z"/>
<path fill="#C2C2C2" opacity="1.000000" stroke="none" 
	d="
M568.941650,183.088089 
	C574.642944,182.386398 578.876953,184.790863 579.818237,189.009293 
	C580.957520,194.115097 578.234436,198.996414 573.459167,200.408096 
	C569.232666,201.657532 564.637024,199.340729 562.888367,195.078979 
	C560.928223,190.302078 563.048096,185.846268 568.941650,183.088089 
z"/>
<path fill="#C7C7C7" opacity="1.000000" stroke="none" 
	d="
M446.257538,373.890991 
	C441.939331,379.471588 436.854645,380.453156 432.453430,376.854309 
	C428.140137,373.327332 427.633484,367.864960 431.422516,363.712036 
	C434.364807,360.487122 438.139221,360.249451 441.924713,361.803345 
	C446.286194,363.593536 447.559296,367.231750 446.257538,373.890991 
z"/>
<path fill="#C0C0C0" opacity="1.000000" stroke="none" 
	d="
M295.205078,186.761612 
	C295.991730,180.660004 299.071625,177.360886 303.744293,177.201889 
	C307.911041,177.060104 311.848511,180.230820 312.656860,184.378922 
	C313.454315,188.471069 310.916046,192.739182 306.814117,194.203445 
	C301.885193,195.962936 297.610504,193.361328 295.205078,186.761612 
z"/>
<path fill="#C3C3C3" opacity="1.000000" stroke="none" 
	d="
M531.888550,194.576660 
	C532.678223,199.852997 531.055115,203.304001 526.221619,205.122070 
	C522.144836,206.655533 518.902222,205.064468 516.506409,202.196030 
	C513.806885,198.963928 514.084229,195.096909 516.403870,191.624359 
	C520.201416,185.939438 528.076172,187.278503 531.888550,194.576660 
z"/>
<path fill="#C5C5C5" opacity="1.000000" stroke="none" 
	d="
M460.122009,394.181396 
	C454.469452,395.016022 449.990997,392.334717 449.088226,387.951538 
	C448.187836,383.579834 451.060089,378.909546 455.500702,377.524872 
	C459.594879,376.248230 464.416870,378.780060 465.873627,382.971313 
	C467.495117,387.636414 465.461029,391.793396 460.122009,394.181396 
z"/>
<path fill="#C3C3C3" opacity="1.000000" stroke="none" 
	d="
M384.474518,369.253845 
	C383.491211,364.361633 385.261963,360.589691 389.386719,359.342834 
	C392.084076,358.527496 396.492432,358.940399 398.268921,360.693542 
	C400.248535,362.647064 401.363220,367.134125 400.531860,369.791870 
	C399.769257,372.229797 396.130829,374.789368 393.371124,375.336487 
	C389.458344,376.112244 386.091553,373.766571 384.474518,369.253845 
z"/>
<path fill="#C2C2C2" opacity="1.000000" stroke="none" 
	d="
M531.056030,243.654480 
	C529.097534,239.508087 529.711853,236.035446 532.896851,233.453598 
	C535.623962,231.242950 538.730896,230.763977 542.106689,232.750015 
	C545.515869,234.755661 546.829285,237.900665 545.708557,241.132965 
	C544.860901,243.577911 542.539856,246.179962 540.200623,247.282532 
	C536.731995,248.917419 533.430725,247.274567 531.056030,243.654480 
z"/>
<path fill="#C3C3C3" opacity="1.000000" stroke="none" 
	d="
M345.599426,140.711456 
	C347.850372,144.929947 348.332947,149.124832 344.406158,151.631393 
	C342.017029,153.156448 338.079712,153.751221 335.389496,152.938263 
	C331.876740,151.876709 330.578033,148.206238 331.103333,144.349228 
	C331.988434,137.850479 338.863495,135.944199 345.599426,140.711456 
z"/>
<path fill="#C0C0C0" opacity="1.000000" stroke="none" 
	d="
M411.851013,386.257324 
	C413.041718,391.991150 411.409302,395.492462 407.140808,396.942719 
	C403.150452,398.298492 399.047272,396.653473 397.175232,392.947388 
	C395.412323,389.457458 396.819153,384.819580 400.303009,382.636200 
	C404.088287,380.263916 408.047089,381.392517 411.851013,386.257324 
z"/>
<path fill="#C4C4C4" opacity="1.000000" stroke="none" 
	d="
M347.643616,353.523773 
	C343.178650,348.629303 343.048401,344.078094 346.967316,340.858246 
	C350.660400,337.823944 356.429993,338.232758 358.482117,342.524872 
	C359.677399,345.024841 359.686462,349.176453 358.366486,351.548126 
	C356.220123,355.404572 352.065277,355.921600 347.643616,353.523773 
z"/>
<path fill="#BFBFBF" opacity="1.000000" stroke="none" 
	d="
M279.108124,568.999146 
	C279.121613,564.344421 279.129547,560.185913 279.159576,556.027649 
	C279.161865,555.712036 279.320984,555.397644 279.515076,554.688538 
	C281.310028,554.688538 283.216644,554.688538 285.540161,554.688538 
	C285.540161,563.846863 285.540161,573.201599 285.540161,582.798828 
	C283.601135,582.798828 281.669586,582.798828 279.108124,582.798828 
	C279.108124,578.363098 279.108124,573.929260 279.108124,568.999146 
z"/>
<path fill="#C2C2C2" opacity="1.000000" stroke="none" 
	d="
M383.847260,129.569519 
	C379.780457,126.708679 377.602295,123.415024 380.044189,118.800385 
	C381.995728,115.112434 386.148315,113.633430 389.744110,115.121758 
	C393.413971,116.640739 395.294006,119.612411 394.679016,123.356644 
	C394.044434,127.219803 391.720367,130.047592 387.200317,129.899292 
	C386.204620,129.866608 385.210876,129.774536 383.847260,129.569519 
z"/>
<path fill="#C2C2C2" opacity="1.000000" stroke="none" 
	d="
M433.811707,123.050079 
	C431.950653,118.918388 431.790070,114.942062 435.872192,112.976349 
	C438.260864,111.826103 441.978271,111.656525 444.377502,112.700890 
	C448.547852,114.516144 448.937317,119.852692 445.917023,123.651566 
	C442.796478,127.576523 438.660309,127.465408 433.811707,123.050079 
z"/>
<path fill="#C2C2C2" opacity="1.000000" stroke="none" 
	d="
M315.074524,312.180176 
	C315.498505,307.807983 318.272949,305.615997 321.677429,305.516571 
	C323.920868,305.451019 327.320129,306.995056 328.226196,308.806549 
	C329.334869,311.023163 329.377960,314.985779 328.031586,316.874542 
	C326.698303,318.744965 322.989838,319.901337 320.454498,319.701843 
	C316.828613,319.416534 314.909058,316.451813 315.074524,312.180176 
z"/>
<path fill="#C2C2C2" opacity="1.000000" stroke="none" 
	d="
M538.818848,291.228516 
	C534.699829,292.597015 530.782043,292.666046 528.952332,288.720795 
	C527.946106,286.551147 528.039124,283.096252 529.086182,280.917480 
	C531.033203,276.865723 536.090210,276.371521 539.698364,279.180786 
	C543.679626,282.280548 543.478638,286.566711 538.818848,291.228516 
z"/>
<path fill="#C0C0C0" opacity="1.000000" stroke="none" 
	d="
M312.120422,264.747681 
	C316.184570,270.575958 314.183655,276.837433 308.368835,276.671021 
	C306.003113,276.603271 302.589905,274.820282 301.679993,272.871460 
	C300.751801,270.883545 301.513275,267.111328 302.971497,265.239197 
	C305.128601,262.469818 308.646454,262.052795 312.120422,264.747681 
z"/>
<path fill="#C0C0C0" opacity="1.000000" stroke="none" 
	d="
M508.164337,325.124390 
	C509.998474,322.847931 511.501526,320.088013 513.693054,319.336945 
	C515.482422,318.723663 518.982422,319.863434 520.103516,321.404694 
	C521.347717,323.115204 521.759644,326.817474 520.694031,328.456116 
	C519.476257,330.328796 516.252930,331.749969 513.863464,331.807556 
	C510.307098,331.893372 508.494965,329.043182 508.164337,325.124390 
z"/>
<path fill="#C0C0C0" opacity="1.000000" stroke="none" 
	d="
M316.042725,220.912018 
	C318.111877,224.333206 317.664093,227.520874 315.097809,229.636887 
	C313.615173,230.859360 310.494965,231.555267 308.895966,230.808670 
	C306.884613,229.869537 304.583496,227.298035 304.426849,225.274567 
	C304.270844,223.259186 306.155731,220.447617 307.969543,219.068695 
	C310.635956,217.041565 313.595398,218.041092 316.042725,220.912018 
z"/>
<path fill="#BFBFBF" opacity="1.000000" stroke="none" 
	d="
M331.704224,190.674637 
	C327.405731,190.810989 324.696045,188.576004 324.419800,185.091080 
	C324.253143,182.988403 325.980103,179.734955 327.800049,178.759354 
	C329.587799,177.801041 333.076996,178.299896 334.922699,179.518097 
	C338.970642,182.189835 337.320007,187.968872 331.704224,190.674637 
z"/>
<path fill="#B3B3B3" opacity="1.000000" stroke="none" 
	d="
M279.076416,545.990051 
	C281.025452,544.557495 282.971527,543.536682 285.677307,542.117432 
	C285.677307,545.423157 285.677307,547.136536 285.677307,549.111816 
	C283.015594,549.020264 279.485107,551.829834 279.076416,545.990051 
z"/>
<path fill="#030303" opacity="1.000000" stroke="none" 
	d="
M119.033600,512.476807 
	C117.714371,512.476807 116.869492,512.377686 116.055038,512.493103 
	C111.355598,513.159302 109.560211,511.426361 109.811531,506.459351 
	C110.214073,498.503876 110.103767,490.507111 109.847122,482.539520 
	C109.703728,478.088013 111.491821,476.799896 115.729996,476.834717 
	C127.233109,476.929321 127.234283,476.786835 127.234291,488.432495 
	C127.234291,496.205322 127.234291,503.978119 127.234291,512.476807 
	C124.367950,512.476807 121.944984,512.476807 119.033600,512.476807 
z"/>
<path fill="#030303" opacity="1.000000" stroke="none" 
	d="
M213.791840,476.910156 
	C218.453979,476.423492 220.317657,478.007263 220.181442,482.503113 
	C219.924805,490.974304 219.983871,499.461426 220.165527,507.936493 
	C220.241135,511.464386 218.892029,512.683960 215.482269,512.518494 
	C211.517548,512.326111 207.536316,512.473694 202.767075,512.473694 
	C202.767075,505.718445 202.766983,499.308350 202.767120,492.898254 
	C202.767197,489.240662 202.996216,485.564880 202.706512,481.930389 
	C202.387878,477.933258 203.894135,476.394867 207.843903,476.873322 
	C209.646240,477.091644 211.497009,476.910248 213.791840,476.910156 
z"/>
<path fill="#030303" opacity="1.000000" stroke="none" 
	d="
M650.028320,476.910126 
	C660.782410,476.811859 660.155884,476.356201 660.106689,486.736633 
	C660.073608,493.718628 659.933472,500.706451 660.166382,507.680817 
	C660.292297,511.450500 658.875793,512.735229 655.225037,512.525452 
	C651.288147,512.299194 647.328186,512.474243 642.768311,512.474243 
	C642.768311,501.189026 642.541992,490.435181 642.875061,479.698669 
	C643.016479,475.138306 647.165466,477.524719 650.028320,476.910126 
z"/>
<path fill="#030303" opacity="1.000000" stroke="none" 
	d="
M550.902893,476.909058 
	C556.033691,476.115326 557.429565,478.073456 557.267334,482.705231 
	C556.930237,492.331940 557.165527,501.978668 557.165527,512.445740 
	C552.093201,512.445740 547.336609,512.602356 542.607056,512.315186 
	C541.647888,512.256958 540.024231,510.539459 540.004517,509.560760 
	C539.806274,499.734131 539.769409,489.899170 540.032043,480.075745 
	C540.060974,478.995331 542.107239,477.370392 543.461609,477.059479 
	C545.678467,476.550507 548.095581,476.913696 550.902893,476.909058 
z"/>
<path fill="#B3B3B3" opacity="1.000000" stroke="none" 
	d="
M491.891479,575.035156 
	C490.950348,574.258484 490.009247,573.481750 489.389252,572.330566 
	C491.117371,570.043457 492.210205,567.738892 494.000336,566.304504 
	C497.195557,563.744324 500.855774,561.773193 504.238739,559.435913 
	C507.224579,557.372925 510.097504,555.146484 513.020325,552.992310 
	C514.325684,554.078979 515.631104,555.165710 516.619751,556.651184 
	C515.028320,558.851440 514.128052,561.218262 512.412720,562.354492 
	C505.712250,566.792664 498.753937,570.841553 491.891479,575.035156 
z"/>
<path fill="#090909" opacity="1.000000" stroke="none" 
	d="
M512.604126,552.938599 
	C510.097504,555.146484 507.224579,557.372925 504.238739,559.435913 
	C500.855774,561.773193 497.195557,563.744324 494.000336,566.304504 
	C492.210205,567.738892 491.117371,570.043457 489.345459,572.006104 
	C488.620026,569.134155 487.972961,566.213989 487.955139,563.289856 
	C487.909760,555.840698 491.336853,552.489746 498.839691,552.487000 
	C503.289062,552.485352 507.738525,552.743591 512.604126,552.938599 
z"/>
<path fill="#030303" opacity="1.000000" stroke="none" 
	d="
M492.310577,575.134094 
	C498.753937,570.841553 505.712250,566.792664 512.412720,562.354492 
	C514.128052,561.218262 515.028320,558.851440 516.664673,556.985596 
	C517.377747,560.515747 518.099304,564.122131 517.983398,567.701477 
	C517.849548,571.835327 515.578308,575.564636 511.392426,575.865479 
	C505.218536,576.309143 498.955017,575.505493 492.310577,575.134094 
z"/>
</svg>
